<mxfile host="drawio-plugin" modified="2021-05-19T14:10:46.889Z" agent="5.0 (Windows NT 6.2; Win64; x64) AppleWebKit/537.36 (KHTML, like Gecko) Chrome/87.0.4280.141 Safari/537.36" etag="eoq84RqhUUhAowvzucr9" version="14.6.6" type="embed"><diagram id="rWvZHSzfH2yJu65lpNsb" name="Page-1"><mxGraphModel dx="1277" dy="431" grid="1" gridSize="10" guides="1" tooltips="1" connect="1" arrows="1" fold="1" page="1" pageScale="1" pageWidth="850" pageHeight="1100" math="0" shadow="0"><root><mxCell id="0"/><mxCell id="1" parent="0"/><mxCell id="2" value="AbstractClass" style="swimlane;fontStyle=1;align=center;verticalAlign=top;childLayout=stackLayout;horizontal=1;startSize=26;horizontalStack=0;resizeParent=1;resizeParentMax=0;resizeLast=0;collapsible=1;marginBottom=0;" parent="1" vertex="1"><mxGeometry x="235" y="110" width="160" height="160" as="geometry"/></mxCell><mxCell id="4" value="" style="line;strokeWidth=1;fillColor=none;align=left;verticalAlign=middle;spacingTop=-1;spacingLeft=3;spacingRight=3;rotatable=0;labelPosition=right;points=[];portConstraint=eastwest;" parent="2" vertex="1"><mxGeometry y="26" width="160" height="8" as="geometry"/></mxCell><mxCell id="5" value="+ template_method()&#10;+ base_operation1()&#10;+ base_operation2()&#10;+ base_operation3()&#10;+ required_operations1()&#10;+ required_operations2()&#10;+ hook1()&#10;+ hook2()&#10;&#10;" style="text;strokeColor=none;fillColor=none;align=left;verticalAlign=top;spacingLeft=4;spacingRight=4;overflow=hidden;rotatable=0;points=[[0,0.5],[1,0.5]];portConstraint=eastwest;" parent="2" vertex="1"><mxGeometry y="34" width="160" height="126" as="geometry"/></mxCell><mxCell id="6" value="ConcreteClass1" style="swimlane;fontStyle=1;align=center;verticalAlign=top;childLayout=stackLayout;horizontal=1;startSize=26;horizontalStack=0;resizeParent=1;resizeParentMax=0;resizeLast=0;collapsible=1;marginBottom=0;" vertex="1" parent="1"><mxGeometry x="455" y="110" width="160" height="90" as="geometry"/></mxCell><mxCell id="7" value="" style="line;strokeWidth=1;fillColor=none;align=left;verticalAlign=middle;spacingTop=-1;spacingLeft=3;spacingRight=3;rotatable=0;labelPosition=right;points=[];portConstraint=eastwest;" vertex="1" parent="6"><mxGeometry y="26" width="160" height="8" as="geometry"/></mxCell><mxCell id="8" value="+ required_operations1()&#10;+ required_operations2()&#10;+ hook1()&#10;&#10;" style="text;strokeColor=none;fillColor=none;align=left;verticalAlign=top;spacingLeft=4;spacingRight=4;overflow=hidden;rotatable=0;points=[[0,0.5],[1,0.5]];portConstraint=eastwest;" vertex="1" parent="6"><mxGeometry y="34" width="160" height="56" as="geometry"/></mxCell><mxCell id="9" value="ConcreteClass2" style="swimlane;fontStyle=1;align=center;verticalAlign=top;childLayout=stackLayout;horizontal=1;startSize=26;horizontalStack=0;resizeParent=1;resizeParentMax=0;resizeLast=0;collapsible=1;marginBottom=0;" vertex="1" parent="1"><mxGeometry x="455" y="260" width="160" height="90" as="geometry"/></mxCell><mxCell id="10" value="" style="line;strokeWidth=1;fillColor=none;align=left;verticalAlign=middle;spacingTop=-1;spacingLeft=3;spacingRight=3;rotatable=0;labelPosition=right;points=[];portConstraint=eastwest;" vertex="1" parent="9"><mxGeometry y="26" width="160" height="8" as="geometry"/></mxCell><mxCell id="11" value="+ required_operations1()&#10;+ required_operations2()&#10;+ hook2()&#10;&#10;" style="text;strokeColor=none;fillColor=none;align=left;verticalAlign=top;spacingLeft=4;spacingRight=4;overflow=hidden;rotatable=0;points=[[0,0.5],[1,0.5]];portConstraint=eastwest;" vertex="1" parent="9"><mxGeometry y="34" width="160" height="56" as="geometry"/></mxCell><mxCell id="12" value="" style="endArrow=block;dashed=1;endFill=0;endSize=12;html=1;exitX=0.5;exitY=0;exitDx=0;exitDy=0;entryX=1;entryY=0.651;entryDx=0;entryDy=0;entryPerimeter=0;" edge="1" parent="1" source="9" target="5"><mxGeometry width="160" relative="1" as="geometry"><mxPoint x="505" y="200" as="sourcePoint"/><mxPoint x="665" y="200" as="targetPoint"/><Array as="points"><mxPoint x="535" y="226"/></Array></mxGeometry></mxCell><mxCell id="13" value="" style="endArrow=block;dashed=1;endFill=0;endSize=12;html=1;entryX=1;entryY=0.643;entryDx=0;entryDy=0;exitX=0.5;exitY=1;exitDx=0;exitDy=0;exitPerimeter=0;entryPerimeter=0;" edge="1" parent="1" source="8" target="5"><mxGeometry width="160" relative="1" as="geometry"><mxPoint x="595" y="200" as="sourcePoint"/><mxPoint x="775" y="190" as="targetPoint"/><Array as="points"><mxPoint x="535" y="225"/></Array></mxGeometry></mxCell><mxCell id="17" style="edgeStyle=orthogonalEdgeStyle;rounded=0;orthogonalLoop=1;jettySize=auto;html=1;entryX=0.5;entryY=0.992;entryDx=0;entryDy=0;entryPerimeter=0;" edge="1" parent="1" source="14" target="5"><mxGeometry relative="1" as="geometry"/></mxCell><mxCell id="14" value="«interface»&lt;br&gt;&lt;b&gt;Client&lt;/b&gt;" style="html=1;" vertex="1" parent="1"><mxGeometry x="230" y="300" width="170" height="50" as="geometry"/></mxCell></root></mxGraphModel></diagram></mxfile>